{"title":"Best Of Naseebo Lal All Time Untouced DVD By {HMA Mobiles}","uid":9715008,"size":3916676917,"categoryP":"video","categoryS":"music_videos","magnet":"?xt=urn:btih:bd59b5b0294e03b500eb74b18b132515583678fb&amp;dn=Best+Of+Naseebo+Lal+All+Time+Untouced+DVD+By+%7BHMA+Mobiles%7D&amp;tr=udp%3A%2F%2Ftracker.openbittorrent.com%3A80&amp;tr=udp%3A%2F%2Fopen.demonii.com%3A1337&amp;tr=udp%3A%2F%2Ftracker.coppersurfer.tk%3A6969&amp;tr=udp%3A%2F%2Fexodus.desync.com%3A6969","seeders":0,"leechers":0,"uploader":"DilDaDoost","files":286,"time":1394145425,"description":"[center][b][color=green][size=6][font=&quot;Comic Sans MS&quot;]Best Of Naseebo Lal All Time\nUntouced DVD 70 Videos\n{DilDaDooSt}[/font][/size][/color][/b][/center]\n\n\n\n\n[center] [url=http://postimg.org/image/g5bsq5tlp/full/][img]http://s6.postimg.org/ykw9nk7q9/mjnj.jpg[/img][/url]\n [/center]\n\n\n\n\n\n\n\n[center][/center]\n\n\n\n[center][url=http://postimg.org/image/5tuujrcil/][img]http://s6.postimg.org/5tuujrcil/image.jpg[/img][/url] [url=http://postimg.org/image/oap9aksgt/][img]http://s6.postimg.org/oap9aksgt/image.jpg[/img][/url]\n\n[url=http://postimg.org/image/6964cryfx/][img]http://s6.postimg.org/6964cryfx/image.jpg[/img][/url] [url=http://postimg.org/image/49u3z3ti5/][img]http://s6.postimg.org/49u3z3ti5/image.jpg[/img][/url]\n\n[url=http://postimg.org/image/5kx9ttzq5/][img]http://s6.postimg.org/5kx9ttzq5/image.jpg[/img][/url] [url=http://postimg.org/image/rqlyxvf31/][img]http://s6.postimg.org/rqlyxvf31/image.jpg[/img][/url]\n\n[url=http://postimg.org/image/yolhq2ntp/][img]http://s6.postimg.org/yolhq2ntp/image.jpg[/img][/url] [url=http://postimg.org/image/iy50a6ty5/][img]http://s6.postimg.org/iy50a6ty5/image.jpg[/img][/url]\n\n[url=http://postimg.org/image/v69htomxp/][img]http://s6.postimg.org/v69htomxp/image.jpg[/img][/url] [url=http://postimg.org/image/3ycnmcd25/][img]http://s6.postimg.org/3ycnmcd25/image.jpg[/img][/url]\n\n[url=http://postimg.org/image/vbhuh3jml/][img]http://s6.postimg.org/vbhuh3jml/image.jpg[/img][/url] \n[/center]\n\n\n\n\n[code] General\nComplete name                            : G:Best Of Naseebo Lal All Time Untouced DVD By {HMA Mobiles}VIDEO_TSVTS_67_1.VOB\nFormat                                   : MPEG-PS\nFile size                                : 98.8 MiB\nDuration                                 : 11mn 7s\nOverall bit rate mode                    : Variable\nOverall bit rate                         : 1 242 Kbps\n\nVideo\nID                                       : 224 (0xE0)\nFormat                                   : MPEG Video\nFormat version                           : Version 2\nFormat profile                           : Main@Main\nFormat settings, BVOP                    : Yes\nFormat settings, Matrix                  : Default\nFormat settings, GOP                     : M=3, N=13\nDuration                                 : 11mn 7s\nBit rate mode                            : Variable\nBit rate                                 : 1 025 Kbps\nMaximum bit rate                         : 9 608 Kbps\nWidth                                    : 352 pixels\nHeight                                   : 288 pixels\nDisplay aspect ratio                     : 4:3\nFrame rate                               : 25.000 fps\nStandard                                 : PAL\nColor space                              : YUV\nChroma subsampling                       : 4:2:0\nBit depth                                : 8 bits\nScan type                                : Progressive\nCompression mode                         : Lossy\nBits/(Pixel*Frame)                       : 0.404\nTime code of first frame                 : 00:00:00:00\nTime code source                         : Group of pictures header\nStream size                              : 81.6 MiB (83%)\n\nAudio\nID                                       : 189 (0xBD)-128 (0x80)\nFormat                                   : AC-3\nFormat/Info                              : Audio Coding 3\nMode extension                           : CM (complete main)\nFormat settings, Endianness              : Big\nMuxing mode                              : DVD-Video\nDuration                                 : 11mn 7s\nBit rate mode                            : Constant\nBit rate                                 : 192 Kbps\nChannel(s)                               : 2 channels\nChannel positions                        : Front: L R\nSampling rate                            : 48.0 KHz\nBit depth                                : 16 bits\nCompression mode                         : Lossy\nStream size                              : 15.3 MiB (15%)\n\nMenu\n\n\n\n\n                                                                                                                                  \n   ooStDil     StDilD  ooStDi       tDilDaD            StD         DilDaDo         ooStDi      StDilD       ilDa  o  DilDaDooStDi  \n   oStDilDaD   tDilDa  oStDil       DilDaDooS         StDil        ilDaDooSt      ooStDilD    StDilDaD    DilDaDooSt ilDaDooStDil  \n   StDilDaDoo   ilDa     Dil        ilDaDooStD        tDilD        lDaDooStDi    ooSt  lDaD  StDi  aDoo  DilDa  oStD lDa  oSt  lD  \n   tDil   ooSt   DaD     il         lDaD   tDil      tDilDa        DaDo   DilD   oSt    aDo  tDi    ooS  ilDaD            StD      \n    ilD   oStD  DaD      lD          aDo   DilD      Dil aDo        Doo   ilDa  oStD    DooStDil    oStD  DaDoo           tDi      \n    lDa    tDi   Doo     Da          Doo    lDa     DilDaDooS       ooS    DaD  StDi    ooStDilD    StDi     oStDi        Di       \n    DaD   tDil   oo      aDo         ooS   lDaD     ilDaDooSt       oSt   DaDo   Dil    oSt  lDa    tDi       tDil        ilD      \n   DaDo  tDilD   oS     aDoo    lD  ooSt  lDaDo    ilDa   StDi     oStD  DaDoo   ilD    StD  DaD    Dil        ilDa       lDa      \n  DaDooStDilDa  oStD     ooS    Da ooStDilDaDoo    lDa     Dil    oStDilDaDooS   lDaD  StDi  aDoo  DilD  ooSt  lDaD       DaD      \n  aDooStDilDa  oStDil  DooStDilDaD oStDilDaDoo   ilDaDo   DilDaD  StDilDaDooS     aDooStDi    ooStDilD   oStDilDaDo     lDaDooS    \n  DooStDilD    StDilDa ooStDilDaDo StDilDaDo     lDaDoo   ilDaDo  tDilDaDoo        ooStDi      StDilD    StDilDaDo      DaDooSt    \n           \n[/code]\n\n\n\n\n[center][size=&quot;6&quot;][color=&quot;#2F4F4F&quot;][font=&quot;Times New Roman&quot;][b]Don't Forget To Tell Me That How Much You Like This Share .. \nPlease Please Do Tell Me .. In The Form Of Replies .. [/b][/font][/color][/size][/center]\n","torrent":{"xt":"urn:btih:bd59b5b0294e03b500eb74b18b132515583678fb","amp;dn":"Best+Of+Naseebo+Lal+All+Time+Untouced+DVD+By+%7BHMA+Mobiles%7D","amp;tr":["udp%3A%2F%2Ftracker.openbittorrent.com%3A80","udp%3A%2F%2Fopen.demonii.com%3A1337","udp%3A%2F%2Ftracker.coppersurfer.tk%3A6969","udp%3A%2F%2Fexodus.desync.com%3A6969"],"infoHash":"bd59b5b0294e03b500eb74b18b132515583678fb","infoHashBuffer":{"type":"Buffer","data":[189,89,181,176,41,78,3,181,0,235,116,177,139,19,37,21,88,54,120,251]},"announce":[],"urlList":[]}}